<?xml version="1.0" encoding="utf-8"?>
<!-- Generator: Adobe Illustrator 26.0.1, SVG Export Plug-In . SVG Version: 6.00 Build 0)  -->
<svg version="1.1" id="Layer_1" xmlns="http://www.w3.org/2000/svg" xmlns:xlink="http://www.w3.org/1999/xlink" x="0px" y="0px"
	 viewBox="0 0 2000 2000" style="enable-background:new 0 0 2000 2000;" xml:space="preserve">
<style type="text/css">
	.st0{fill:#403F41;}
	.st1{fill:#468EC1;}
</style>
<g>
	<g>
		<g>
			<path class="st0" d="M556.18,1268.07h-17.73l-1.05-8.76c-4.55,5.68-12.13,10.86-25.32,10.86c-21.47,0-40.72-14.69-40.72-45.67
				c0-28.39,16.8-47.89,43.98-47.89c20.18,0,36.4,11.11,39.78,32.96h-26.13c-1.98-7.28-7-11.23-14.12-11.23
				c-10.85,0-15.98,10.37-15.98,26.04c0,12.59,3.73,24.07,17.62,24.07c5.6,0,12.72-4.07,14.12-10.25h-12.13v-19.26h37.68V1268.07z"
				/>
		</g>
		<g>
			<path class="st0" d="M579.27,1267.82l30.1-88.87h28l30.1,88.87h-27.42l-3.27-11.73h-27.42l-3.15,11.73H579.27z M623.14,1205.73
				l-8.52,31.85H632L623.14,1205.73z"/>
		</g>
		<g>
			<path class="st0" d="M689.75,1267.82v-88.87H723l14.82,55.42l14.82-55.42h33.25v88.87h-24.73v-27.16l0.35-13.82l1.4-16.05h-0.23
				l-15.28,57.03h-19.13l-15.28-57.03h-0.23l1.17,13.08l0.58,13.82v30.12H689.75z"/>
		</g>
		<g>
			<path class="st0" d="M815.74,1267.82v-88.87h68.48v20.74h-40.95v12.71h34.65v20.74h-34.65v13.95h42.58v20.74H815.74z"/>
		</g>
		<g>
			<path class="st0" d="M966.81,1267.82v-88.87h68.48v20.74h-40.95v12.71H1029v20.74h-34.65v13.95h42.58v20.74H966.81z"/>
		</g>
		<g>
			<path class="st0" d="M1119.99,1227.46l-1.05-20.24v-28.27h26.37v88.87h-25.78l-29.98-48.39l1.05,20.24v28.14h-26.37v-88.87h25.78
				L1119.99,1227.46z"/>
		</g>
		<g>
			<path class="st0" d="M1256.72,1268.07h-17.73l-1.05-8.76c-4.55,5.68-12.13,10.86-25.32,10.86c-21.47,0-40.72-14.69-40.72-45.67
				c0-28.39,16.8-47.89,43.98-47.89c20.18,0,36.4,11.11,39.78,32.96h-26.13c-1.98-7.28-7-11.23-14.12-11.23
				c-10.85,0-15.98,10.37-15.98,26.04c0,12.59,3.73,24.07,17.62,24.07c5.6,0,12.72-4.07,14.12-10.25h-12.13v-19.26h37.68V1268.07z"
				/>
		</g>
		<g>
			<path class="st0" d="M1287.4,1267.82v-88.87h27.53v88.87H1287.4z"/>
		</g>
		<g>
			<path class="st0" d="M1401.73,1227.46l-1.05-20.24v-28.27h26.37v88.87h-25.78l-29.98-48.39l1.05,20.24v28.14h-26.37v-88.87h25.78
				L1401.73,1227.46z"/>
		</g>
		<g>
			<path class="st0" d="M1457.95,1267.82v-88.87h68.48v20.74h-40.95v12.71h34.65v20.74h-34.65v13.95h42.58v20.74H1457.95z"/>
		</g>
	</g>
	<g>
		<g>
			<g>
				<path class="st1" d="M408.33,956.77v167.65h-61.49l-5.31-29.86c-9.29,9.44-17.4,16.29-24.33,20.57
					c-17.55,10.76-39.08,16.15-64.58,16.15c-42.32,0-76.83-15.33-103.51-46.01c-24.48-28.16-36.72-63.33-36.72-105.5
					c0-48.51,14.3-88.4,42.91-119.66c27.28-29.64,62.96-44.46,107.05-44.46c31.26,0,58.17,6.78,80.73,20.35
					c31.11,18.58,50.13,48.22,57.06,88.91h-87.81c-3.1-9.58-7.96-17.18-14.6-22.78c-9.44-7.96-20.87-11.94-34.28-11.94
					c-19.76,0-34.8,8.18-45.12,24.55c-9.14,14.75-13.71,33.92-13.71,57.51c0,29.49,7.08,51.68,21.23,66.58
					c11.2,11.8,25.58,17.69,43.13,17.69c17.1,0,30.97-4.79,41.58-14.38c4.72-4.27,8.26-10.62,10.62-19.02h-38.93v-66.35H408.33z"/>
			</g>
			<g>
				<path class="st1" d="M927.21,822.51h138.24c39.51,0,71.37,9.51,95.55,28.53c33.62,26.54,50.43,67.32,50.43,122.31
					c0,38.19-8.04,69.75-24.11,94.66c-19.32,29.93-46.82,47.85-82.5,53.75c-10.32,1.77-22.78,2.65-37.38,2.65H927.21V822.51z
					 M1016.79,901.03v144.87h32.96c17.99,0,32.07-3.46,42.25-10.4c18.28-12.39,27.43-32.73,27.43-61.04
					c0-30.52-9.37-51.76-28.09-63.7c-10.17-6.49-23.67-9.73-40.47-9.73H1016.79z"/>
			</g>
			<g>
				<path class="st1" d="M1422.61,815.66c38.63,0,71.51,11.13,98.65,33.4c35.39,29.05,53.08,70.56,53.08,124.52
					c0,53.67-17.69,95.11-53.08,124.3c-26.98,22.27-60.46,33.4-100.41,33.4c-39.96,0-73.43-11.13-100.41-33.4
					c-35.39-29.2-53.08-70.48-53.08-123.86c0-55.14,17.69-96.8,53.08-124.97C1348.29,826.79,1382.35,815.66,1422.61,815.66z
					 M1419.95,890.42c-19.76,0-35.17,8.77-46.23,26.32c-9.59,15.19-14.38,34.14-14.38,56.84c0,22.56,4.79,41.44,14.38,56.62
					c11.06,17.55,26.76,26.32,47.11,26.32c20.35,0,36.05-8.77,47.11-26.32c9.58-15.33,14.38-34.14,14.38-56.4
					c0-23.15-4.79-42.17-14.38-57.06C1456.74,899.19,1440.75,890.42,1419.95,890.42z"/>
			</g>
			<g>
				<path class="st1" d="M1801,901.03v223.39h-90.68V901.03h-87.15v-78.52h263.87v78.52H1801z"/>
			</g>
		</g>
		<g>
			<g>
				<g>
					<path class="st1" d="M848.43,1012.71c-23.99,2.3-47.96,4.63-71.92,6.98c-1.67,0.16-3.1,0.78-4.3,1.86
						c-1.51,1.35-2.35,3.08-2.52,5.18c-0.37,4.57-1.1,15-2.21,31.28c-0.01,0.1-0.08,0.17-0.18,0.18l-61.87,4.41
						c-0.06,0.01-0.11-0.04-0.12-0.1c-1.36-9.15-2.71-18.28-4.05-27.39c-0.28-1.86-0.59-3.15-0.96-3.87
						c-0.9-1.78-2.38-3.04-4.42-3.78c-0.77-0.28-1.5-0.42-2.2-0.42c-31.44,0-55.9,0-73.38,0c-1.59,0-2.6,0.03-3.03,0.09
						c-2.71,0.36-5.09,2.17-6.09,4.66c-0.24,0.61-0.54,2.12-0.9,4.55c-1.36,9.28-2.65,18.01-3.87,26.18
						c-0.01,0.05-0.05,0.09-0.11,0.09l-61.85-4.42c-0.12-0.01-0.19-0.07-0.19-0.19c-0.6-8.68-1.22-17.51-1.84-26.49
						c-0.14-2-0.22-3.21-0.26-3.65c-0.12-1.61-0.34-2.8-0.66-3.57c-0.98-2.36-3.41-4.37-6.13-4.63
						c-24.01-2.32-48.03-4.64-72.06-6.95c-0.02-38.54-0.02-77.09,0-115.67c0-0.51-0.25-0.46-0.49-0.78
						c-9.32-11.96-18.07-24.6-26.24-37.9c-0.05-0.08-0.05-0.16,0-0.24c6.5-10.94,13.88-21.51,22.13-31.69
						c5.56-6.86,11.22-13.38,17-19.57c0.06-0.07,0.14-0.08,0.22-0.04c11.12,5.61,22.02,11.81,32.7,18.62
						c1.5,0.96,3.54,2.27,6.1,3.93c0.06,0.04,0.14,0.03,0.2-0.02c3.04-2.99,6.46-5.96,10.26-8.92c5.94-4.62,9.86-7.64,11.77-9.06
						c2.47-1.84,5.29-3.72,8.47-5.66c4.44-2.7,8.07-4.92,10.91-6.68c0.05-0.03,0.07-0.08,0.07-0.14
						c-2.04-15.64-3.23-31.61-3.59-47.92c0-0.09,0.04-0.16,0.12-0.2c18.34-9.13,37.96-15.44,58.15-19.89
						c0.1-0.02,0.17,0.01,0.23,0.1c1.22,2.02,2.36,3.97,3.42,5.86c6.54,11.59,12.59,23.64,18.14,36.12
						c0.04,0.08,0.12,0.13,0.21,0.11c15.19-2.36,30.38-2.36,45.55,0c0.1,0.02,0.21-0.04,0.25-0.14
						c6.48-14.61,13.65-28.59,21.51-41.97c0.05-0.08,0.12-0.11,0.21-0.09c12.77,2.79,25,6.33,36.69,10.61
						c7.23,2.65,14.4,5.75,21.51,9.32c0.08,0.04,0.12,0.1,0.12,0.19c-0.36,16.34-1.56,32.31-3.59,47.89
						c-0.01,0.06,0.02,0.11,0.07,0.14c3.72,2.3,7.43,4.57,11.12,6.81c3.04,1.84,5.88,3.76,8.53,5.76c4.34,3.28,8.28,6.3,11.81,9.07
						c3.51,2.76,6.84,5.65,9.97,8.7c0.06,0.06,0.13,0.07,0.2,0.02c12.51-8.3,25.45-15.83,38.8-22.58c0.06-0.03,0.13-0.02,0.17,0.03
						c5.32,5.75,10.23,11.35,14.74,16.79c9.16,11.05,17.31,22.57,24.46,34.55c0.02,0.04,0.02,0.09,0,0.13
						c-8.14,13.24-16.86,25.85-26.18,37.83c-0.2,0.25-0.61,0.45-0.61,0.85C848.45,935.57,848.45,974.15,848.43,1012.71
						 M597.83,943.71c0-23.7-19.22-42.92-42.92-42.92c-23.7,0-42.92,19.22-42.92,42.92c0,23.7,19.22,42.92,42.92,42.92
						C578.61,986.63,597.83,967.42,597.83,943.71 M799.78,943.71c0-23.7-19.22-42.92-42.92-42.92s-42.92,19.22-42.92,42.92
						c0,23.7,19.22,42.92,42.92,42.92S799.78,967.42,799.78,943.71 M642.05,958.22c0,5.7,0,11.39,0.01,17.09
						c0,2.74,0.11,4.55,0.34,5.44c1.52,6.01,7.41,9.79,13.49,9.79s11.97-3.78,13.49-9.79c0.23-0.89,0.34-2.7,0.34-5.44
						c0.01-5.7,0.01-11.39,0.01-17.09c0-5.7,0-11.39-0.01-17.09c0-2.74-0.11-4.55-0.34-5.44c-1.52-6.01-7.41-9.79-13.49-9.79
						s-11.97,3.78-13.49,9.79c-0.23,0.89-0.34,2.7-0.34,5.44C642.05,946.83,642.05,952.52,642.05,958.22L642.05,958.22z"/>
				</g>
				<g>
					<path class="st1" d="M848.54,1028.1c0,10.4-0.06,16.9-0.19,19.51c-0.73,14.8-5.53,28.07-14.4,39.83
						c-8.51,11.27-19.68,20.05-32.38,27.22c-10.8,6.09-22.52,10.91-34.38,14.7c-7.48,2.39-15.14,4.46-22.96,6.2
						c-19.55,4.36-39.44,6.88-59.46,8.1c-29.8,1.83-59.24,0.85-88.3-2.95c-0.64-0.08-2.44-0.35-5.4-0.79
						c-17.16-2.57-34.01-6.32-50.19-11.79c-16.89-5.71-33.32-13.5-47.34-24.67c-10.93-8.71-20.21-20.04-25.19-32.75
						c-3.11-7.93-4.76-16-4.96-24.19c-0.11-4.54-0.16-10.68-0.16-18.43l63.91,6.17c0.07,0.01,0.11,0.06,0.12,0.13
						c0.69,9.89,1.39,19.79,2.08,29.7c0.14,2.07,0.38,3.49,0.7,4.26c0.59,1.41,1.56,2.55,2.91,3.42c1.19,0.77,2.51,1.21,3.95,1.3
						c9.44,0.63,34.7,2.42,75.79,5.37c0.98,0.07,2-0.11,3.07-0.54c1.86-0.76,3.21-1.96,4.05-3.6c0.39-0.77,0.76-2.3,1.1-4.59
						c1.34-9.07,2.67-18.13,4.01-27.19c0.01-0.08,0.08-0.13,0.15-0.13h61.63c0.09,0,0.16,0.07,0.18,0.15
						c2.48,16.86,3.93,26.67,4.34,29.43c0.19,1.25,0.72,2.44,1.61,3.58c1.63,2.09,3.85,3.04,6.66,2.84
						c42.3-2.99,67.54-4.78,75.69-5.37c2.88-0.21,5.46-2.04,6.56-4.69c0.33-0.8,0.57-2.21,0.71-4.22
						c0.39-5.66,1.09-15.56,2.08-29.72c0.01-0.07,0.05-0.12,0.12-0.13L848.54,1028.1L848.54,1028.1z"/>
				</g>
				<g>
					<path class="st0" d="M587.49,946.25c0,15.73-12.75,28.49-28.49,28.49c-15.73,0-28.49-12.75-28.49-28.49
						c0-15.73,12.75-28.49,28.49-28.49C574.74,917.76,587.49,930.52,587.49,946.25L587.49,946.25z"/>
				</g>
				<g>
					<path class="st0" d="M781.23,946.25c0,15.73-12.75,28.48-28.48,28.48s-28.48-12.75-28.48-28.48
						c0-15.73,12.75-28.48,28.48-28.48S781.23,930.52,781.23,946.25L781.23,946.25z"/>
				</g>
			</g>
		</g>
	</g>
	<g>
		<g>
			<circle class="st0" cx="1590.04" cy="1223.39" r="15.9"/>
		</g>
		<g>
			<circle class="st0" cx="409.39" cy="1223.39" r="15.9"/>
		</g>
	</g>
	<g>
		<g>
			<polygon class="st1" points="1776.4,1227.05 1785.29,1216.62 1785.29,1227.05 			"/>
			<path class="st1" d="M1722.77,1219.21c-0.35-1.28-0.84-2.39-1.49-3.33c-0.64-0.95-1.41-1.69-2.31-2.22
				c-0.9-0.53-1.88-0.8-2.96-0.8c-1.1,0-2.09,0.26-2.98,0.78c-0.88,0.52-1.63,1.24-2.24,2.17c-0.62,0.93-1.1,2.03-1.45,3.31
				c-0.35,1.28-0.52,2.67-0.52,4.18v0.1c0,1.51,0.17,2.91,0.52,4.2c0.35,1.29,0.84,2.4,1.46,3.33c0.63,0.93,1.4,1.66,2.3,2.2
				c0.9,0.53,1.89,0.8,3,0.8c1.1,0,2.09-0.26,2.97-0.78c0.88-0.52,1.64-1.24,2.27-2.17c0.63-0.93,1.11-2.03,1.44-3.31
				c0.33-1.27,0.5-2.67,0.5-4.18v-0.09C1723.29,1221.88,1723.12,1220.48,1722.77,1219.21z M1722.77,1219.21
				c-0.35-1.28-0.84-2.39-1.49-3.33c-0.64-0.95-1.41-1.69-2.31-2.22c-0.9-0.53-1.88-0.8-2.96-0.8c-1.1,0-2.09,0.26-2.98,0.78
				c-0.88,0.52-1.63,1.24-2.24,2.17c-0.62,0.93-1.1,2.03-1.45,3.31c-0.35,1.28-0.52,2.67-0.52,4.18v0.1c0,1.51,0.17,2.91,0.52,4.2
				c0.35,1.29,0.84,2.4,1.46,3.33c0.63,0.93,1.4,1.66,2.3,2.2c0.9,0.53,1.89,0.8,3,0.8c1.1,0,2.09-0.26,2.97-0.78
				c0.88-0.52,1.64-1.24,2.27-2.17c0.63-0.93,1.11-2.03,1.44-3.31c0.33-1.27,0.5-2.67,0.5-4.18v-0.09
				C1723.29,1221.88,1723.12,1220.48,1722.77,1219.21z M1722.77,1219.21c-0.35-1.28-0.84-2.39-1.49-3.33
				c-0.64-0.95-1.41-1.69-2.31-2.22c-0.9-0.53-1.88-0.8-2.96-0.8c-1.1,0-2.09,0.26-2.98,0.78c-0.88,0.52-1.63,1.24-2.24,2.17
				c-0.62,0.93-1.1,2.03-1.45,3.31c-0.35,1.28-0.52,2.67-0.52,4.18v0.1c0,1.51,0.17,2.91,0.52,4.2c0.35,1.29,0.84,2.4,1.46,3.33
				c0.63,0.93,1.4,1.66,2.3,2.2c0.9,0.53,1.89,0.8,3,0.8c1.1,0,2.09-0.26,2.97-0.78c0.88-0.52,1.64-1.24,2.27-2.17
				c0.63-0.93,1.11-2.03,1.44-3.31c0.33-1.27,0.5-2.67,0.5-4.18v-0.09C1723.29,1221.88,1723.12,1220.48,1722.77,1219.21z
				 M1722.77,1219.21c-0.35-1.28-0.84-2.39-1.49-3.33c-0.64-0.95-1.41-1.69-2.31-2.22c-0.9-0.53-1.88-0.8-2.96-0.8
				c-1.1,0-2.09,0.26-2.98,0.78c-0.88,0.52-1.63,1.24-2.24,2.17c-0.62,0.93-1.1,2.03-1.45,3.31c-0.35,1.28-0.52,2.67-0.52,4.18v0.1
				c0,1.51,0.17,2.91,0.52,4.2c0.35,1.29,0.84,2.4,1.46,3.33c0.63,0.93,1.4,1.66,2.3,2.2c0.9,0.53,1.89,0.8,3,0.8
				c1.1,0,2.09-0.26,2.97-0.78c0.88-0.52,1.64-1.24,2.27-2.17c0.63-0.93,1.11-2.03,1.44-3.31c0.33-1.27,0.5-2.67,0.5-4.18v-0.09
				C1723.29,1221.88,1723.12,1220.48,1722.77,1219.21z M1722.77,1219.21c-0.35-1.28-0.84-2.39-1.49-3.33
				c-0.64-0.95-1.41-1.69-2.31-2.22c-0.9-0.53-1.88-0.8-2.96-0.8c-1.1,0-2.09,0.26-2.98,0.78c-0.88,0.52-1.63,1.24-2.24,2.17
				c-0.62,0.93-1.1,2.03-1.45,3.31c-0.35,1.28-0.52,2.67-0.52,4.18v0.1c0,1.51,0.17,2.91,0.52,4.2c0.35,1.29,0.84,2.4,1.46,3.33
				c0.63,0.93,1.4,1.66,2.3,2.2c0.9,0.53,1.89,0.8,3,0.8c1.1,0,2.09-0.26,2.97-0.78c0.88-0.52,1.64-1.24,2.27-2.17
				c0.63-0.93,1.11-2.03,1.44-3.31c0.33-1.27,0.5-2.67,0.5-4.18v-0.09C1723.29,1221.88,1723.12,1220.48,1722.77,1219.21z
				 M1722.77,1219.21c-0.35-1.28-0.84-2.39-1.49-3.33c-0.64-0.95-1.41-1.69-2.31-2.22c-0.9-0.53-1.88-0.8-2.96-0.8
				c-1.1,0-2.09,0.26-2.98,0.78c-0.88,0.52-1.63,1.24-2.24,2.17c-0.62,0.93-1.1,2.03-1.45,3.31c-0.35,1.28-0.52,2.67-0.52,4.18v0.1
				c0,1.51,0.17,2.91,0.52,4.2c0.35,1.29,0.84,2.4,1.46,3.33c0.63,0.93,1.4,1.66,2.3,2.2c0.9,0.53,1.89,0.8,3,0.8
				c1.1,0,2.09-0.26,2.97-0.78c0.88-0.52,1.64-1.24,2.27-2.17c0.63-0.93,1.11-2.03,1.44-3.31c0.33-1.27,0.5-2.67,0.5-4.18v-0.09
				C1723.29,1221.88,1723.12,1220.48,1722.77,1219.21z M1825.87,1195.59h-175.62v55.6h175.62l-19.79-28.03L1825.87,1195.59z
				 M1691.45,1239.92h-24.47v-5.75l11.01-9.01c1.04-0.85,1.92-1.61,2.65-2.29c0.72-0.67,1.31-1.32,1.77-1.93
				c0.46-0.61,0.79-1.21,1-1.79c0.21-0.58,0.31-1.22,0.31-1.91c0-1.41-0.41-2.48-1.23-3.21s-1.89-1.09-3.21-1.09
				c-1.29,0-2.43,0.36-3.42,1.09c-0.99,0.73-2.1,1.85-3.33,3.36l-5.1-4.11c0.82-1.11,1.65-2.09,2.48-2.95
				c0.83-0.86,1.73-1.58,2.69-2.16c0.96-0.59,2.02-1.03,3.19-1.34c1.17-0.3,2.49-0.45,3.97-0.45c1.7,0,3.25,0.24,4.65,0.73
				c1.4,0.49,2.6,1.18,3.59,2.06c0.99,0.88,1.76,1.95,2.31,3.21c0.55,1.26,0.83,2.66,0.83,4.2v0.1c0,1.38-0.18,2.62-0.54,3.71
				c-0.36,1.09-0.9,2.11-1.61,3.07c-0.71,0.96-1.61,1.92-2.71,2.88c-1.1,0.96-2.38,2.01-3.83,3.15l-5.39,4.15h14.41V1239.92z
				 M1730.76,1223.39c0,2.39-0.35,4.63-1.06,6.71c-0.71,2.08-1.71,3.89-3,5.43c-1.29,1.54-2.84,2.75-4.66,3.64
				c-1.81,0.88-3.82,1.32-6.02,1.32c-2.2,0-4.21-0.43-6.02-1.3c-1.81-0.86-3.35-2.06-4.63-3.59c-1.28-1.52-2.26-3.33-2.95-5.41
				c-0.7-2.08-1.04-4.31-1.04-6.71v-0.09c0-2.39,0.36-4.63,1.06-6.71c0.71-2.08,1.71-3.89,3.01-5.43c1.29-1.54,2.84-2.76,4.65-3.64
				c1.81-0.88,3.82-1.32,6.02-1.32c2.17,0,4.16,0.43,5.97,1.3c1.81,0.87,3.36,2.06,4.63,3.59c1.28,1.53,2.26,3.33,2.97,5.41
				c0.71,2.08,1.06,4.32,1.06,6.71V1223.39z M1756.2,1239.92h-7.4v-26.72l-5.94,1.46l-1.56-6.14l9.79-2.91h5.11V1239.92z
				 M1796.83,1233.03h-4.5v7.22h-7.04v-7.22h-16.36l-1.2-5.22l18.37-21.29h6.22v20.53h4.5V1233.03z M1721.28,1215.88
				c-0.64-0.95-1.41-1.69-2.31-2.22c-0.9-0.53-1.88-0.8-2.96-0.8c-1.1,0-2.09,0.26-2.98,0.78c-0.88,0.52-1.63,1.24-2.24,2.17
				c-0.62,0.93-1.1,2.03-1.45,3.31c-0.35,1.28-0.52,2.67-0.52,4.18v0.1c0,1.51,0.17,2.91,0.52,4.2c0.35,1.29,0.84,2.4,1.46,3.33
				c0.63,0.93,1.4,1.66,2.3,2.2c0.9,0.53,1.89,0.8,3,0.8c1.1,0,2.09-0.26,2.97-0.78c0.88-0.52,1.64-1.24,2.27-2.17
				c0.63-0.93,1.11-2.03,1.44-3.31c0.33-1.27,0.5-2.67,0.5-4.18v-0.09c0-1.51-0.18-2.91-0.52-4.18S1721.93,1216.82,1721.28,1215.88z
				 M1722.77,1219.21c-0.35-1.28-0.84-2.39-1.49-3.33c-0.64-0.95-1.41-1.69-2.31-2.22c-0.9-0.53-1.88-0.8-2.96-0.8
				c-1.1,0-2.09,0.26-2.98,0.78c-0.88,0.52-1.63,1.24-2.24,2.17c-0.62,0.93-1.1,2.03-1.45,3.31c-0.35,1.28-0.52,2.67-0.52,4.18v0.1
				c0,1.51,0.17,2.91,0.52,4.2c0.35,1.29,0.84,2.4,1.46,3.33c0.63,0.93,1.4,1.66,2.3,2.2c0.9,0.53,1.89,0.8,3,0.8
				c1.1,0,2.09-0.26,2.97-0.78c0.88-0.52,1.64-1.24,2.27-2.17c0.63-0.93,1.11-2.03,1.44-3.31c0.33-1.27,0.5-2.67,0.5-4.18v-0.09
				C1723.29,1221.88,1723.12,1220.48,1722.77,1219.21z M1722.77,1219.21c-0.35-1.28-0.84-2.39-1.49-3.33
				c-0.64-0.95-1.41-1.69-2.31-2.22c-0.9-0.53-1.88-0.8-2.96-0.8c-1.1,0-2.09,0.26-2.98,0.78c-0.88,0.52-1.63,1.24-2.24,2.17
				c-0.62,0.93-1.1,2.03-1.45,3.31c-0.35,1.28-0.52,2.67-0.52,4.18v0.1c0,1.51,0.17,2.91,0.52,4.2c0.35,1.29,0.84,2.4,1.46,3.33
				c0.63,0.93,1.4,1.66,2.3,2.2c0.9,0.53,1.89,0.8,3,0.8c1.1,0,2.09-0.26,2.97-0.78c0.88-0.52,1.64-1.24,2.27-2.17
				c0.63-0.93,1.11-2.03,1.44-3.31c0.33-1.27,0.5-2.67,0.5-4.18v-0.09C1723.29,1221.88,1723.12,1220.48,1722.77,1219.21z
				 M1722.77,1219.21c-0.35-1.28-0.84-2.39-1.49-3.33c-0.64-0.95-1.41-1.69-2.31-2.22c-0.9-0.53-1.88-0.8-2.96-0.8
				c-1.1,0-2.09,0.26-2.98,0.78c-0.88,0.52-1.63,1.24-2.24,2.17c-0.62,0.93-1.1,2.03-1.45,3.31c-0.35,1.28-0.52,2.67-0.52,4.18v0.1
				c0,1.51,0.17,2.91,0.52,4.2c0.35,1.29,0.84,2.4,1.46,3.33c0.63,0.93,1.4,1.66,2.3,2.2c0.9,0.53,1.89,0.8,3,0.8
				c1.1,0,2.09-0.26,2.97-0.78c0.88-0.52,1.64-1.24,2.27-2.17c0.63-0.93,1.11-2.03,1.44-3.31c0.33-1.27,0.5-2.67,0.5-4.18v-0.09
				C1723.29,1221.88,1723.12,1220.48,1722.77,1219.21z M1722.77,1219.21c-0.35-1.28-0.84-2.39-1.49-3.33
				c-0.64-0.95-1.41-1.69-2.31-2.22c-0.9-0.53-1.88-0.8-2.96-0.8c-1.1,0-2.09,0.26-2.98,0.78c-0.88,0.52-1.63,1.24-2.24,2.17
				c-0.62,0.93-1.1,2.03-1.45,3.31c-0.35,1.28-0.52,2.67-0.52,4.18v0.1c0,1.51,0.17,2.91,0.52,4.2c0.35,1.29,0.84,2.4,1.46,3.33
				c0.63,0.93,1.4,1.66,2.3,2.2c0.9,0.53,1.89,0.8,3,0.8c1.1,0,2.09-0.26,2.97-0.78c0.88-0.52,1.64-1.24,2.27-2.17
				c0.63-0.93,1.11-2.03,1.44-3.31c0.33-1.27,0.5-2.67,0.5-4.18v-0.09C1723.29,1221.88,1723.12,1220.48,1722.77,1219.21z"/>
		</g>
		<g>
			<path class="st1" d="M173.56,1195.59l19.8,27.56l-19.8,28.03h175.63v-55.6H173.56z M238.63,1239.92H213.5v-33.07h24.89v6.47
				h-17.72v6.71h15.59v6.47h-15.59v6.95h17.95V1239.92z M273.78,1230.14c0,1.64-0.3,3.1-0.89,4.37c-0.59,1.28-1.43,2.35-2.49,3.21
				c-1.06,0.87-2.33,1.53-3.81,1.99c-1.48,0.46-3.11,0.69-4.91,0.69c-2.52,0-4.99-0.44-7.42-1.3c-2.42-0.87-4.63-2.2-6.61-3.99
				l4.3-5.15c1.51,1.23,3.07,2.2,4.66,2.93c1.58,0.72,3.33,1.09,5.22,1.09c1.51,0,2.69-0.28,3.52-0.83
				c0.83-0.55,1.25-1.31,1.25-2.29v-0.09c0-0.47-0.09-0.89-0.26-1.26c-0.17-0.36-0.5-0.7-1-1.01c-0.49-0.32-1.17-0.63-2.03-0.95
				c-0.87-0.31-2-0.64-3.39-0.99c-1.68-0.41-3.19-0.87-4.55-1.37c-1.36-0.5-2.51-1.12-3.45-1.86s-1.68-1.66-2.2-2.76
				c-0.52-1.1-0.78-2.47-0.78-4.11v-0.1c0-1.51,0.29-2.87,0.84-4.09c0.56-1.21,1.35-2.26,2.37-3.14c1.01-0.88,2.23-1.56,3.64-2.03
				c1.41-0.47,2.97-0.7,4.67-0.7c2.42,0,4.65,0.36,6.68,1.09c2.03,0.72,3.9,1.76,5.6,3.11l-3.78,5.48c-1.48-1.01-2.93-1.8-4.35-2.39
				c-1.41-0.58-2.83-0.87-4.25-0.87c-1.41,0-2.48,0.27-3.19,0.83c-0.71,0.55-1.06,1.24-1.06,2.06v0.09c0,0.53,0.1,1,0.31,1.4
				c0.2,0.39,0.57,0.75,1.11,1.06c0.53,0.32,1.27,0.61,2.2,0.9c0.93,0.28,2.11,0.61,3.53,0.99c1.68,0.44,3.16,0.93,4.47,1.49
				c1.31,0.55,2.42,1.21,3.31,1.99c0.9,0.77,1.58,1.68,2.04,2.71c0.46,1.04,0.69,2.28,0.69,3.73V1230.14z M309.86,1213.56H299.8
				v26.36h-7.27v-26.36h-10.06v-6.71h27.39V1213.56z M326.73,1239.92h-7.61v-7.56h7.61V1239.92z"/>
		</g>
	</g>
</g>
</svg>
